<?xml version="1.0" encoding="UTF-8" standalone="no"?>
<svg width="204px" height="153px" viewBox="0 0 204 153" version="1.1" xmlns="http://www.w3.org/2000/svg" xmlns:xlink="http://www.w3.org/1999/xlink">
    <!-- Generator: Sketch 3.8.3 (29802) - http://www.bohemiancoding.com/sketch -->
    <title>anmelden</title>
    <desc>Created with Sketch.</desc>
    <defs>
        <polygon id="path-1" points="67.5841 0.437 0.8381 0.437 0.8381 76.7185 67.5841 76.7185 67.5841 0.437"></polygon>
        <polygon id="path-3" points="0 0.2537 0 66.9997 114.4219 66.9997 114.4219 0.2537 0 0.2537"></polygon>
        <polygon id="path-5" points="0.1039 64 108.902 64 108.902 0.5343 0.1039 0.5343 0.1039 64"></polygon>
    </defs>
    <g id="Page-1" stroke="none" stroke-width="1" fill="none" fill-rule="evenodd">
        <g id="anmelden" transform="translate(0.000000, -1.000000)">
            <g id="Page-1">
                <g id="Group-3" transform="translate(23.000000, 0.563000)">
                    <mask id="mask-2" fill="white">
                        <use xlink:href="#path-1"></use>
                    </mask>
                    <g id="Clip-2"></g>
                    <path d="M34.2111,76.7185 C52.6481,76.7185 67.5841,59.6405 67.5841,38.5775 C67.5841,17.5145 52.6481,0.4365 34.2111,0.4365 C15.7831,0.4365 0.8381,17.5145 0.8381,38.5775 C0.8381,59.6405 15.7831,76.7185 34.2111,76.7185 M34.2111,67.1835 C28.9411,67.1835 24.6761,62.9145 24.6761,57.6485 L43.7461,57.6485 C43.7461,62.9145 39.4821,67.1835 34.2111,67.1835 M11.8821,35.2445 C16.7521,38.8755 26.2031,37.5445 34.5281,31.6595 C38.7181,28.7075 41.8381,25.1125 43.7641,21.5235 C52.1641,25.2065 58.0491,33.5775 58.0491,43.3455 C58.0491,48.0665 56.6341,52.4335 54.2681,56.1355 L34.2111,48.1125 L14.1541,56.1355 C11.7881,52.4335 10.3731,48.0665 10.3731,43.3455 C10.3731,40.4865 10.9691,37.7815 11.8821,35.2445" id="Fill-1" fill="#1D1C1B" mask="url(#mask-2)"></path>
                </g>
                <g id="Group-6" transform="translate(0.000000, 86.563000)">
                    <mask id="mask-4" fill="white">
                        <use xlink:href="#path-3"></use>
                    </mask>
                    <g id="Clip-5"></g>
                    <path d="M95.3519,0.2537 L76.2819,0.2537 L57.2109,28.8597 L38.1409,0.2537 L19.0699,0.2537 C8.5479,0.2537 -0.0001,8.7927 -0.0001,19.3237 L-0.0001,38.3947 L-0.0001,57.4647 C-0.0001,62.7357 4.2749,66.9997 9.5349,66.9997 L104.8869,66.9997 C110.1579,66.9997 114.4219,62.7357 114.4219,57.4647 L114.4219,38.3947 L114.4219,19.3237 C114.4219,8.7927 105.8929,0.2537 95.3519,0.2537" id="Fill-4" fill="#1D1C1B" mask="url(#mask-4)"></path>
                </g>
                <path d="M144.0224,80.4777 C131.6364,77.9407 122.3034,66.9787 122.3034,53.8317 C122.3034,43.8747 127.7144,35.2647 135.6914,30.5227 C138.2324,35.9987 143.4204,41.5947 150.5654,45.7247 C159.9324,51.1307 169.8674,52.4627 176.3134,49.8827 C176.5074,51.1837 176.7034,52.4767 176.7034,53.8317 C176.7034,66.9787 167.3884,77.9407 154.9924,80.4777 C172.3994,77.8167 185.7694,62.9157 185.7694,44.7647 C185.7694,24.7367 169.5314,8.4987 149.5034,8.4987 C129.4844,8.4987 113.2374,24.7367 113.2374,44.7647 C113.2374,62.9157 126.6244,77.8167 144.0224,80.4777" id="Fill-7" fill="#1D1C1B"></path>
                <g id="Group-11" transform="translate(95.000000, 89.563000)">
                    <mask id="mask-6" fill="white">
                        <use xlink:href="#path-5"></use>
                    </mask>
                    <g id="Clip-10"></g>
                    <path d="M81.7029,0.5343 L77.1699,0.5343 C77.1699,13.0543 67.0239,23.2003 54.5029,23.2003 C41.9839,23.2003 31.8369,13.0543 31.8369,0.5343 L27.3039,0.5343 C12.2869,0.5343 0.1039,12.7093 0.1039,27.7343 L0.1039,54.9333 C0.1039,59.9453 4.1589,64.0003 9.1709,64.0003 L99.8359,64.0003 C104.8479,64.0003 108.9029,59.9453 108.9029,54.9333 L108.9029,27.7343 C108.9029,12.7093 96.7359,0.5343 81.7029,0.5343" id="Fill-9" fill="#1D1C1B" mask="url(#mask-6)"></path>
                </g>
            </g>
        </g>
    </g>
</svg>