<?xml version="1.0" encoding="UTF-8" standalone="no"?>
<svg width="29px" height="28px" viewBox="0 0 29 28" version="1.1" xmlns="http://www.w3.org/2000/svg" xmlns:xlink="http://www.w3.org/1999/xlink">
    <!-- Generator: Sketch 3.7.2 (28276) - http://www.bohemiancoding.com/sketch -->
    <title>hochladen</title>
    <desc>Created with Sketch.</desc>
    <defs>
        <polygon id="path-1" points="0 28 27.531 28 27.531 0.469 0 0.469"></polygon>
    </defs>
    <g id="Page-1" stroke="none" stroke-width="1" fill="none" fill-rule="evenodd">
        <g id="hochladen" transform="translate(0.000000, -1.000000)">
            <g id="Page-1" transform="translate(0.549500, 0.000000)">
                <g id="Group-3" transform="translate(0.000000, 0.531000)">
                    <mask id="mask-2" fill="white">
                        <use xlink:href="#path-1"></use>
                    </mask>
                    <g id="Clip-2"></g>
                    <path d="M13.7655,28 C21.3675,28 27.5315,21.837 27.5315,14.234 C27.5315,6.632 21.3675,0.469 13.7655,0.469 C6.1635,0.469 -0.0005,6.632 -0.0005,14.234 C-0.0005,21.837 6.1635,28 13.7655,28" id="Fill-1" fill="#1D1C1B" mask="url(#mask-2)"></path>
                </g>
                <polygon id="Fill-4" fill="#FEFEFE" points="14.6494 13.8816 14.6494 9.7656 12.8814 9.7656 12.8814 13.8816 8.7654 13.8816 8.7654 15.6496 12.8814 15.6496 12.8814 19.7656 14.6494 19.7656 14.6494 15.6496 18.7654 15.6496 18.7654 13.8816"></polygon>
            </g>
        </g>
    </g>
</svg>