<?xml version="1.0" encoding="UTF-8" standalone="no"?>
<svg width="196px" height="180px" viewBox="0 0 196 180" version="1.1" xmlns="http://www.w3.org/2000/svg" xmlns:xlink="http://www.w3.org/1999/xlink">
    <!-- Generator: Sketch 3.8.3 (29802) - http://www.bohemiancoding.com/sketch -->
    <title>kurse</title>
    <desc>Created with Sketch.</desc>
    <defs></defs>
    <g id="Page-1" stroke="none" stroke-width="1" fill="none" fill-rule="evenodd">
        <g id="anmelden" fill="#1D1C1B">
            <path d="M195.564,89.451 C195.564,98.38 192.298,106.489 186.989,112.526 C186.076,125.267 178.546,136.021 168.047,140.87 L168.047,140.989 C155.229,148.991 147.565,162.649 145.233,179.032 L133.379,179.032 L133.379,141.024 C133.457,129.177 136.933,121.59 144.221,116.909 C146.887,115.265 149.309,113.386 151.375,111.302 C156.783,113.386 161.571,117.47 164.616,123.279 C165.25,124.421 166.382,125.066 167.505,125.066 C168.047,125.066 168.617,124.923 169.125,124.6 C170.748,123.646 171.325,121.482 170.416,119.766 L170.393,119.766 C166.982,113.263 161.795,108.466 155.909,105.609 C158.93,100.63 160.607,94.702 160.529,87.58 C160.529,87.545 160.573,87.51 160.573,87.461 C160.573,84.245 160.129,81.115 159.331,78.173 C166.252,76.757 172.348,72.992 176.836,67.692 C178.082,66.229 177.99,63.977 176.615,62.667 C175.247,61.346 173.181,61.463 171.959,62.894 C168.047,67.455 162.772,70.575 156.774,71.432 C151.954,61.858 142.989,55.06 132.481,53.821 C133.182,47.747 135.735,42.331 139.578,38.21 C140.844,36.828 140.844,34.576 139.578,33.207 C138.289,31.813 136.156,31.813 134.868,33.207 C129.949,38.484 126.658,45.532 125.837,53.381 C113.496,51.714 103.987,40.484 103.966,26.814 C103.966,24.871 102.465,23.253 100.689,23.253 C98.809,23.253 97.344,24.871 97.344,26.814 C97.344,29.123 97.555,31.325 97.966,33.493 C93.288,37.831 87.468,40.021 81.636,40.021 C78.759,40.021 75.871,39.475 73.15,38.414 C73.15,38.414 73.105,38.4 73.073,38.39 C69.718,37.092 66.641,35.029 63.975,32.171 C62.698,30.789 60.588,30.789 59.287,32.171 C57.986,33.553 57.986,35.796 59.287,37.186 C62.019,40.106 65.097,42.368 68.373,43.997 C67.718,52.845 62.918,60.454 56.209,64.728 C52.333,58.417 46.501,53.416 39.335,50.973 C37.547,50.38 35.692,51.414 35.125,53.285 C34.636,55.154 35.526,57.143 37.292,57.727 C42.613,59.534 46.89,63.049 49.966,67.526 C47.902,68.122 45.78,68.441 43.524,68.441 L43.489,68.441 L43.121,68.441 C34.613,68.441 26.793,72.075 21.105,78.018 C19.76,79.387 19.728,81.637 21.051,83.031 C21.682,83.748 22.55,84.104 23.45,84.104 C24.207,84.104 25.038,83.77 25.683,83.103 C30.195,78.386 36.347,75.543 43.123,75.543 L43.48,75.543 L43.489,75.543 L43.524,75.543 C59.475,75.543 72.728,62.81 74.805,46.308 C77.072,46.832 79.336,47.117 81.636,47.117 C88.114,47.117 94.645,44.963 100.142,40.699 C102.152,45.616 105.33,49.913 109.185,53.248 C105.253,58.441 102.942,64.607 102.333,70.919 C100.677,70.632 98.934,70.478 97.189,70.478 C92.191,70.478 87.114,71.75 82.393,74.456 C80.771,75.375 80.159,77.526 81.016,79.266 C81.616,80.446 82.783,81.138 83.971,81.138 C84.514,81.138 85.003,81.007 85.481,80.708 C89.28,78.575 93.259,77.563 97.189,77.563 C98.943,77.563 100.677,77.766 102.333,78.145 C103.053,85.338 105.956,92.374 110.94,97.971 C111.609,98.712 112.462,99.068 113.32,99.068 C114.13,99.068 114.974,98.745 115.631,98.092 C116.987,96.722 117.019,94.495 115.73,93.076 L115.709,93.076 C111.277,88.053 108.933,81.672 108.779,75.217 C108.779,75.121 108.8,75.05 108.779,74.943 L108.779,74.548 C108.779,68.284 110.801,62.091 114.8,57.115 C119.012,59.365 123.809,60.675 128.885,60.675 C128.885,60.675 128.908,60.687 128.942,60.687 L128.996,60.687 C142.748,60.734 153.88,72.644 153.934,87.383 C151.325,86.646 148.636,86.263 145.882,86.263 C141.939,86.263 137.939,87.037 134.084,88.743 C132.372,89.492 131.563,91.551 132.252,93.363 C132.949,95.17 134.851,96.053 136.551,95.316 C139.637,93.995 142.784,93.353 145.882,93.353 C148.38,93.353 150.859,93.756 153.179,94.53 C152.368,98.507 150.779,101.697 148.314,104.532 C148.124,104.71 147.945,104.913 147.804,105.15 C145.913,107.138 143.648,108.97 140.848,110.792 C131.263,116.794 126.662,127.679 126.761,141.015 L126.761,179.024 L115.453,179.024 L115.453,142.883 C115.453,129.607 107.69,117.015 97.913,112.538 C93.247,110.597 88.381,107.347 84.837,103.095 C79.784,106.774 73.717,108.941 67.196,108.941 C60.653,108.941 54.588,106.811 49.568,103.156 C44.569,106.68 38.536,108.741 32.084,108.741 C14.341,108.743 0,93.332 0,74.341 C0,60.144 8.009,47.964 19.474,42.724 C22.574,27.573 35.091,16.24 50.154,16.24 C50.955,16.24 51.688,16.31 52.433,16.359 C58.11,7.464 67.651,1.628 78.46,1.628 C83.814,1.628 88.836,3.059 93.247,5.606 C98.222,2.058 104.176,0.001 110.583,0.001 C118.815,0.001 126.313,3.442 131.933,9.026 C134.288,8.418 136.721,8.062 139.265,8.062 C151.984,8.062 162.981,16.267 167.891,28.019 C180.801,32.212 190.198,45.047 190.198,60.241 C190.198,63.289 189.819,66.231 189.12,69.029 C193.142,74.7 195.564,81.772 195.564,89.451" id="Page-1"></path>
        </g>
    </g>
</svg>