<?xml version="1.0" encoding="UTF-8" standalone="no"?>
<svg width="26px" height="26px" viewBox="0 0 26 26" version="1.1" xmlns="http://www.w3.org/2000/svg" xmlns:xlink="http://www.w3.org/1999/xlink">
    <!-- Generator: Sketch 3.7.2 (28276) - http://www.bohemiancoding.com/sketch -->
    <title>mail</title>
    <desc>Created with Sketch.</desc>
    <defs>
        <polygon id="path-1" points="0 26 25.727 26 25.727 0.418 0 0.418"></polygon>
    </defs>
    <g id="Page-1" stroke="none" stroke-width="1" fill="none" fill-rule="evenodd">
        <g id="mail" transform="translate(0.000000, -1.000000)">
            <g id="Page-1">
                <g id="Group-3" transform="translate(0.000000, 0.581700)">
                    <mask id="mask-2" fill="white">
                        <use xlink:href="#path-1"></use>
                    </mask>
                    <g id="Clip-2"></g>
                    <path d="M12.8636,26 C19.9676,26 25.7276,20.273 25.7276,13.209 C25.7276,6.145 19.9676,0.418 12.8636,0.418 C5.7596,0.418 -0.0004,6.145 -0.0004,13.209 C-0.0004,20.273 5.7596,26 12.8636,26" id="Fill-1" fill="#1D1C1B" mask="url(#mask-2)"></path>
                </g>
                <path d="M6.0341,9.8083 L6.0341,18.5743 L19.6931,18.5743 L19.6931,9.9253 L12.9431,14.9953 L6.0341,9.8083 Z M12.9431,13.2853 L18.6371,9.0113 L7.2481,9.0113 L12.9431,13.2853 Z" id="Fill-4" fill="#FEFEFE"></path>
            </g>
        </g>
    </g>
</svg>