<?xml version="1.0" encoding="UTF-8" standalone="no"?>
<svg width="160px" height="185px" viewBox="0 0 160 185" version="1.1" xmlns="http://www.w3.org/2000/svg" xmlns:xlink="http://www.w3.org/1999/xlink">
    <!-- Generator: Sketch 3.7.2 (28276) - http://www.bohemiancoding.com/sketch -->
    <title>logo</title>
    <desc>Created with Sketch.</desc>
    <defs></defs>
    <g id="Page-1" stroke="none" stroke-width="1" fill="none" fill-rule="evenodd">
        <g id="logo" transform="translate(0.000000, -1.000000)">
            <g id="Page-1">
                <polygon id="Fill-1" fill="#FFFA00" points="0 150.881 95.209 150.881 95.209 74.064 0 74.064"></polygon>
                <polygon id="Fill-2" fill="#96BE00" points="0 74.064 95.209 74.064 95.209 0.999 0 0.999"></polygon>
                <polygon id="Fill-3" fill="#FFAAAA" points="0 185.502 159.043 185.502 159.043 150.881 0 150.881"></polygon>
                <path d="M42.0752,65.8227 L42.0752,54.8247 L20.1582,54.8247 L20.1582,10.8337 L9.1602,10.8337 L9.1602,65.8227 L42.0752,65.8227 Z M83.3162,65.8227 L73.4182,10.8337 L56.9222,10.8337 L47.1022,65.8227 L58.1792,65.8227 L59.7502,57.5747 L70.6692,57.5747 L72.0832,65.8227 L83.3162,65.8227 Z M68.7052,46.5767 L61.6352,46.5767 L65.1702,27.0167 L68.7052,46.5767 Z" id="Fill-4" fill="#1D1C1B"></path>
                <path d="M43.0179,84.4045 L31.4699,84.4045 L25.6569,103.1005 L19.9229,84.4045 L8.3749,84.4045 L20.1579,122.3465 L20.1579,139.3935 L31.1559,139.3935 L31.1559,122.3465 L43.0179,84.4045 Z M83.3169,139.3935 L73.4189,84.4045 L56.9219,84.4045 L47.1029,139.3935 L58.1789,139.3935 L59.7499,131.1445 L70.6689,131.1445 L72.0829,139.3935 L83.3169,139.3935 Z M68.7049,120.1475 L61.6349,120.1475 L65.1699,100.5865 L68.7049,120.1475 Z" id="Fill-5" fill="#1D1C1B"></path>
                <path d="M10.4097,161.936 L8.2947,161.936 L8.2947,173.568 L15.1957,173.568 L15.1957,171.722 L10.4097,171.722 L10.4097,161.936 Z M23.6727,165.897 C23.0037,165.049 22.0657,164.625 20.8587,164.625 C19.6997,164.625 18.7377,165.031 17.9727,165.843 C17.1727,166.692 16.7727,167.815 16.7727,169.213 C16.7727,170.575 17.1727,171.693 17.9727,172.565 C18.7497,173.401 19.7117,173.819 20.8587,173.819 C21.8387,173.819 22.6687,173.557 23.3507,173.031 C24.0077,172.529 24.4077,171.842 24.5507,170.969 L22.4187,170.969 C22.2507,171.734 21.7307,172.117 20.8587,172.117 C20.2017,172.117 19.7117,171.896 19.3887,171.453 C19.0667,171.011 18.8927,170.438 18.8697,169.733 L24.4977,169.733 C24.5447,169.398 24.5687,169.022 24.5687,168.604 C24.5687,168.185 24.4947,167.725 24.3447,167.223 C24.1957,166.722 23.9717,166.28 23.6727,165.897 L23.6727,165.897 Z M21.7017,166.489 C22.2987,166.811 22.5977,167.445 22.5977,168.388 L18.8877,168.388 C18.9467,167.779 19.1437,167.28 19.4787,166.892 C19.8127,166.504 20.2787,166.309 20.8767,166.309 C21.1997,166.309 21.4737,166.369 21.7017,166.489 L21.7017,166.489 Z M27.8127,169.132 C27.1797,169.569 26.8637,170.19 26.8637,170.996 C26.8637,171.803 27.1497,172.469 27.7237,172.995 C28.3447,173.545 29.2167,173.819 30.3407,173.819 C31.4997,173.819 32.3597,173.347 32.9217,172.403 L33.0827,173.568 L34.9287,173.568 L34.9287,168.03 C34.9287,167.445 34.8387,166.937 34.6597,166.506 C34.1337,165.252 32.9747,164.625 31.1827,164.625 C29.9277,164.625 28.9517,164.846 28.2527,165.288 C27.5537,165.73 27.2037,166.447 27.2037,167.439 L29.5157,167.439 C29.5157,167.032 29.6647,166.719 29.9637,166.498 C30.2627,166.277 30.6897,166.166 31.2457,166.166 C31.8007,166.166 32.2017,166.312 32.4467,166.605 C32.6907,166.898 32.8137,167.349 32.8137,167.958 L32.8137,168.819 C31.9057,168.592 31.1047,168.478 30.4117,168.478 C29.3127,168.478 28.4467,168.696 27.8127,169.132 L27.8127,169.132 Z M32.2137,171.624 C31.8367,172.012 31.3587,172.206 30.7797,172.206 C30.1997,172.206 29.7787,172.09 29.5157,171.857 C29.2527,171.624 29.1217,171.346 29.1217,171.023 C29.1217,170.259 29.6947,169.876 30.8427,169.876 C31.4517,169.876 32.1087,169.972 32.8137,170.163 C32.7897,170.748 32.5897,171.235 32.2137,171.624 L32.2137,171.624 Z M40.5747,164.84 L38.4597,164.84 L38.4597,173.568 L40.5747,173.568 L40.5747,169.751 C40.5747,167.803 41.2797,166.829 42.6897,166.829 C43.0127,166.829 43.3407,166.865 43.6757,166.937 L43.7117,164.822 C43.4007,164.738 43.1437,164.696 42.9407,164.696 C41.8887,164.696 41.1007,165.324 40.5747,166.578 L40.5747,164.84 Z M48.2097,164.858 L46.3637,164.858 L46.3637,173.568 L48.4787,173.568 L48.4787,169.536 C48.5027,168.532 48.7147,167.779 49.1147,167.277 C49.5147,166.775 49.9957,166.524 50.5577,166.524 C51.1197,166.524 51.5557,166.689 51.8667,167.017 C52.1767,167.346 52.3327,167.833 52.3327,168.478 L52.3327,173.568 L54.4477,173.568 L54.4477,168.478 C54.4477,167.319 54.1757,166.387 53.6317,165.682 C53.0877,164.977 52.2787,164.625 51.2027,164.625 C49.9367,164.625 49.0167,165.204 48.4427,166.363 L48.2097,164.858 Z M63.2297,169.132 C62.5957,169.569 62.2797,170.19 62.2797,170.996 C62.2797,171.803 62.5657,172.469 63.1397,172.995 C63.7607,173.545 64.6337,173.819 65.7567,173.819 C66.9157,173.819 67.7757,173.347 68.3377,172.403 L68.4987,173.568 L70.3447,173.568 L70.3447,168.03 C70.3447,167.445 70.2557,166.937 70.0757,166.506 C69.5497,165.252 68.3917,164.625 66.5987,164.625 C65.3447,164.625 64.3677,164.846 63.6687,165.288 C62.9697,165.73 62.6197,166.447 62.6197,167.439 L64.9317,167.439 C64.9317,167.032 65.0817,166.719 65.3797,166.498 C65.6787,166.277 66.1057,166.166 66.6617,166.166 C67.2177,166.166 67.6177,166.312 67.8627,166.605 C68.1077,166.898 68.2297,167.349 68.2297,167.958 L68.2297,168.819 C67.3217,168.592 66.5207,168.478 65.8287,168.478 C64.7287,168.478 63.8627,168.696 63.2297,169.132 L63.2297,169.132 Z M67.6297,171.624 C67.2527,172.012 66.7747,172.206 66.1957,172.206 C65.6157,172.206 65.1947,172.09 64.9317,171.857 C64.6687,171.624 64.5377,171.346 64.5377,171.023 C64.5377,170.259 65.1117,169.876 66.2587,169.876 C66.8677,169.876 67.5247,169.972 68.2297,170.163 C68.2057,170.748 68.0057,171.235 67.6297,171.624 L67.6297,171.624 Z M73.0877,170.916 C73.0987,171.836 73.4577,172.55 74.1627,173.058 C74.8677,173.566 75.7997,173.819 76.9587,173.819 C78.1177,173.819 79.0497,173.545 79.7547,172.995 C80.4357,172.469 80.7767,171.848 80.7767,171.131 C80.7767,170.569 80.5937,170.112 80.2297,169.76 C79.8647,169.407 79.3427,169.117 78.6617,168.89 L76.6007,168.12 C75.8947,167.917 75.5427,167.606 75.5427,167.188 C75.5427,166.949 75.6707,166.737 75.9277,166.551 C76.1847,166.366 76.5467,166.273 77.0127,166.273 C77.4787,166.273 77.8367,166.357 78.0877,166.524 C78.3387,166.692 78.4757,166.919 78.4997,167.206 L80.4897,167.206 C80.4657,166.465 80.1517,165.849 79.5487,165.359 C78.9447,164.87 78.0847,164.625 76.9677,164.625 C75.8507,164.625 74.9607,164.849 74.2967,165.297 C73.6337,165.745 73.3027,166.339 73.3027,167.08 C73.3027,168.191 74.0077,168.992 75.4177,169.482 L77.3167,170.163 C77.6997,170.282 77.9807,170.414 78.1597,170.557 C78.3387,170.701 78.4287,170.904 78.4287,171.167 C78.4287,171.43 78.2817,171.659 77.9897,171.857 C77.6967,172.054 77.3227,172.152 76.8687,172.152 C75.6857,172.152 75.0827,171.74 75.0587,170.916 L73.0877,170.916 Z M87.4257,164.858 L90.9207,173.568 L90.6517,174.411 C90.4847,174.948 90.2667,175.385 89.9977,175.719 C89.7287,176.054 89.3857,176.221 88.9667,176.221 C88.3337,176.221 87.7067,176.024 87.0847,175.63 L87.0847,177.494 C87.8617,177.876 88.6387,178.067 89.4157,178.067 C90.1797,178.067 90.8097,177.84 91.3057,177.386 C91.8017,176.932 92.2227,176.185 92.5697,175.146 L95.9037,164.858 L93.7527,164.858 L91.9247,171.131 L89.8277,164.858 L87.4257,164.858 Z M98.6457,165.754 C97.8217,166.578 97.4087,167.737 97.4087,169.231 C97.4087,170.701 97.8217,171.848 98.6457,172.672 C99.4107,173.437 100.4137,173.819 101.6567,173.819 C102.8997,173.819 103.8917,173.437 104.6327,172.672 C105.4567,171.836 105.8687,170.689 105.8687,169.231 C105.8687,167.749 105.4567,166.59 104.6327,165.754 C104.2617,165.371 103.8197,165.088 103.3057,164.902 C102.7917,164.717 102.2427,164.625 101.6567,164.625 C100.4027,164.625 99.3987,165.001 98.6457,165.754 L98.6457,165.754 Z M103.1447,171.283 C102.7387,171.743 102.2187,171.973 101.5857,171.973 C100.9517,171.973 100.4527,171.743 100.0887,171.283 C99.7237,170.823 99.5417,170.133 99.5417,169.213 C99.5417,168.293 99.7447,167.603 100.1517,167.143 C100.5577,166.683 101.0807,166.453 101.7197,166.453 C102.3587,166.453 102.8577,166.683 103.2167,167.143 C103.5747,167.603 103.7537,168.293 103.7537,169.213 C103.7537,170.133 103.5507,170.823 103.1447,171.283 L103.1447,171.283 Z M114.6157,173.568 L116.7307,173.568 L116.7307,164.84 L114.6157,164.84 L114.6157,169.141 C114.5917,170.002 114.3587,170.689 113.9167,171.202 C113.7127,171.43 113.4747,171.6 113.1997,171.713 C112.9247,171.827 112.5867,171.884 112.1867,171.884 C111.7867,171.884 111.4487,171.743 111.1747,171.462 C110.8997,171.182 110.7617,170.754 110.7617,170.181 L110.7617,164.84 L108.6467,164.84 L108.6467,170.396 C108.6467,170.994 108.7367,171.501 108.9157,171.919 C109.4057,173.126 110.4217,173.73 111.9627,173.73 C113.1817,173.73 114.0657,173.15 114.6157,171.991 L114.6157,173.568 Z M125.7637,169.132 C125.1307,169.569 124.8137,170.19 124.8137,170.996 C124.8137,171.803 125.1007,172.469 125.6737,172.995 C126.2957,173.545 127.1677,173.819 128.2907,173.819 C129.4497,173.819 130.3097,173.347 130.8717,172.403 L131.0337,173.568 L132.8797,173.568 L132.8797,168.03 C132.8797,167.445 132.7897,166.937 132.6107,166.506 C132.0847,165.252 130.9257,164.625 129.1337,164.625 C127.8787,164.625 126.9017,164.846 126.2027,165.288 C125.5037,165.73 125.1547,166.447 125.1547,167.439 L127.4667,167.439 C127.4667,167.032 127.6157,166.719 127.9147,166.498 C128.2127,166.277 128.6407,166.166 129.1957,166.166 C129.7517,166.166 130.1517,166.312 130.3967,166.605 C130.6417,166.898 130.7647,167.349 130.7647,167.958 L130.7647,168.819 C129.8557,168.592 129.0557,168.478 128.3627,168.478 C127.2627,168.478 126.3967,168.696 125.7637,169.132 L125.7637,169.132 Z M130.1637,171.624 C129.7877,172.012 129.3097,172.206 128.7297,172.206 C128.1507,172.206 127.7287,172.09 127.4667,171.857 C127.2037,171.624 127.0717,171.346 127.0717,171.023 C127.0717,170.259 127.6457,169.876 128.7927,169.876 C129.4027,169.876 130.0597,169.972 130.7647,170.163 C130.7407,170.748 130.5407,171.235 130.1637,171.624 L130.1637,171.624 Z M138.5257,164.84 L136.4107,164.84 L136.4107,173.568 L138.5257,173.568 L138.5257,169.751 C138.5257,167.803 139.2297,166.829 140.6407,166.829 C140.9627,166.829 141.2917,166.865 141.6257,166.937 L141.6617,164.822 C141.3507,164.738 141.0937,164.696 140.8907,164.696 C139.8397,164.696 139.0507,165.324 138.5257,166.578 L138.5257,164.84 Z M150.3907,165.897 C149.7207,165.049 148.7827,164.625 147.5767,164.625 C146.4177,164.625 145.4557,165.031 144.6907,165.843 C143.8897,166.692 143.4897,167.815 143.4897,169.213 C143.4897,170.575 143.8897,171.693 144.6907,172.565 C145.4677,173.401 146.4297,173.819 147.5767,173.819 C148.5557,173.819 149.3867,173.557 150.0677,173.031 C150.7247,172.529 151.1247,171.842 151.2687,170.969 L149.1357,170.969 C148.9687,171.734 148.4487,172.117 147.5767,172.117 C146.9187,172.117 146.4297,171.896 146.1067,171.453 C145.7837,171.011 145.6107,170.438 145.5867,169.733 L151.2147,169.733 C151.2627,169.398 151.2867,169.022 151.2867,168.604 C151.2867,168.185 151.2117,167.725 151.0627,167.223 C150.9127,166.722 150.6887,166.28 150.3907,165.897 L150.3907,165.897 Z M148.4187,166.489 C149.0157,166.811 149.3147,167.445 149.3147,168.388 L145.6047,168.388 C145.6647,167.779 145.8617,167.28 146.1967,166.892 C146.5307,166.504 146.9967,166.309 147.5947,166.309 C147.9167,166.309 148.1917,166.369 148.4187,166.489 L148.4187,166.489 Z" id="Fill-6" fill="#1D1C1B"></path>
            </g>
        </g>
    </g>
</svg>