<?xml version="1.0" encoding="UTF-8" standalone="no"?>
<!-- Created with Inkscape (http://www.inkscape.org/) -->

<svg
   xmlns:dc="http://purl.org/dc/elements/1.1/"
   xmlns:cc="http://creativecommons.org/ns#"
   xmlns:rdf="http://www.w3.org/1999/02/22-rdf-syntax-ns#"
   xmlns:svg="http://www.w3.org/2000/svg"
   xmlns="http://www.w3.org/2000/svg"
   xmlns:sodipodi="http://sodipodi.sourceforge.net/DTD/sodipodi-0.dtd"
   xmlns:inkscape="http://www.inkscape.org/namespaces/inkscape"
   width="8.3449583mm"
   height="6.1803136mm"
   viewBox="0 0 8.3449584 6.1803136"
   version="1.1"
   id="svg5926"
   inkscape:version="0.92.1 r"
   sodipodi:docname="audioW.svg">
  <defs
     id="defs5920">
    <clipPath
       clipPathUnits="userSpaceOnUse"
       id="clipPath4904">
      <path
         d="M 0,0 H 1366 V 2500 H 0 Z"
         id="path4902"
         inkscape:connector-curvature="0" />
    </clipPath>
    <clipPath
       clipPathUnits="userSpaceOnUse"
       id="clipPath4946">
      <path
         d="M 0,0 H 1366 V 2500 H 0 Z"
         id="path4944"
         inkscape:connector-curvature="0" />
    </clipPath>
  </defs>
  <sodipodi:namedview
     id="base"
     pagecolor="#ffffff"
     bordercolor="#666666"
     borderopacity="1.0"
     inkscape:pageopacity="0.0"
     inkscape:pageshadow="2"
     inkscape:zoom="0.35"
     inkscape:cx="55.127188"
     inkscape:cy="-135.75508"
     inkscape:document-units="mm"
     inkscape:current-layer="layer1"
     showgrid="false"
     fit-margin-top="0"
     fit-margin-left="0"
     fit-margin-right="0"
     fit-margin-bottom="0"
     inkscape:window-width="956"
     inkscape:window-height="1051"
     inkscape:window-x="960"
     inkscape:window-y="0"
     inkscape:window-maximized="0" />
  <metadata
     id="metadata5923">
    <rdf:RDF>
      <cc:Work
         rdf:about="">
        <dc:format>image/svg+xml</dc:format>
        <dc:type
           rdf:resource="http://purl.org/dc/dcmitype/StillImage" />
        <dc:title></dc:title>
      </cc:Work>
    </rdf:RDF>
  </metadata>
  <g
     inkscape:label="Layer 1"
     inkscape:groupmode="layer"
     id="layer1"
     transform="translate(-57.985694,-106.73449)">
    <g
       id="g5918"
       transform="matrix(0.35277777,0,0,-0.35277777,-204.17779,968.70968)">
      <g
         transform="translate(756.3516,2443.3943)"
         id="g4936">
        <path
           inkscape:connector-curvature="0"
           id="path4938"
           style="fill:#ffffff;fill-opacity:1;fill-rule:nonzero;stroke:none"
           d="m 0,0 -6.064,-4.043 h -7.147 v -9.433 h 7.147 L 0,-17.519 Z" />
      </g>
      <g
         id="g4940">
        <g
           clip-path="url(#clipPath4946)"
           id="g4942">
          <g
             transform="translate(763.8986,2442.9128)"
             id="g4948">
            <path
               inkscape:connector-curvature="0"
               id="path4950"
               style="fill:#ffffff;fill-opacity:1;fill-rule:nonzero;stroke:none"
               d="m 0,0 -1.793,-1.448 c 1.518,-1.891 2.483,-4.216 2.483,-6.83 0,-2.614 -0.965,-4.938 -2.483,-6.829 L 0,-16.555 c 1.817,2.267 2.897,5.146 2.897,8.277 C 2.897,-5.146 1.817,-2.267 0,0" />
          </g>
          <g
             transform="translate(760.4496,2440.1536)"
             id="g4952">
            <path
               inkscape:connector-curvature="0"
               id="path4954"
               style="fill:#ffffff;fill-opacity:1;fill-rule:nonzero;stroke:none"
               d="m 0,0 -1.724,-1.38 c 0.907,-1.133 1.448,-2.573 1.448,-4.138 0,-1.566 -0.541,-3.006 -1.448,-4.139 L 0,-11.037 c 1.204,1.509 1.931,3.438 1.931,5.519 C 1.931,-3.438 1.204,-1.509 0,0" />
          </g>
        </g>
      </g>
    </g>
  </g>
</svg>
