<?xml version="1.0" encoding="UTF-8" standalone="no"?>
<svg width="25px" height="9px" viewBox="0 0 25 9" version="1.1" xmlns="http://www.w3.org/2000/svg" xmlns:xlink="http://www.w3.org/1999/xlink">
    <!-- Generator: Sketch 3.7.2 (28276) - http://www.bohemiancoding.com/sketch -->
    <title>aufgabe</title>
    <desc>Created with Sketch.</desc>
    <defs>
        <polygon id="path-1" points="24.1118909 8.08501 0 8.08501 0 4.04256 0 0.00011 24.1118909 0.00011 24.1118909 8.08501"></polygon>
    </defs>
    <g id="Page-1" stroke="none" stroke-width="1" fill="none" fill-rule="evenodd">
        <g id="aufgabe">
            <g id="Page-1">
                <mask id="mask-2" fill="white">
                    <use xlink:href="#path-1"></use>
                </mask>
                <g id="Clip-2"></g>
                <path d="M23.907,3.68311 C23.421,3.39511 19.167,0.92011 18.016,0.19611 C17.802,0.06211 17.586,0.00011 17.334,0.00011 L13.257,0.00011 L2.264,0.00011 L2.209,0.00011 L2.209,0.00011 C0.989,0.03011 0,1.03711 0,2.26311 L0,5.82111 C0,7.04811 0.989,8.05511 2.209,8.08411 L2.209,8.08511 L2.264,8.08511 L13.257,8.08511 L17.334,8.08511 C17.586,8.08511 17.802,8.02211 18.016,7.88811 C19.166,7.16511 23.414,4.69311 23.903,4.40411 C23.963,4.36911 24.016,4.31911 24.054,4.25411 C24.171,4.05611 24.105,3.80011 23.907,3.68311 L23.907,3.68311 Z M20.76,5.29411 L18.049,6.89911 L18.049,1.18611 L20.76,2.79011 L20.76,5.29411 Z" id="Fill-1" fill="#1D1C1B" mask="url(#mask-2)"></path>
            </g>
        </g>
    </g>
</svg>