<?xml version="1.0" encoding="UTF-8" standalone="no"?>
<svg width="24px" height="24px" viewBox="0 0 24 24" version="1.1" xmlns="http://www.w3.org/2000/svg" xmlns:xlink="http://www.w3.org/1999/xlink">
    <!-- Generator: Sketch 3.7.2 (28276) - http://www.bohemiancoding.com/sketch -->
    <title>einfach</title>
    <desc>Created with Sketch.</desc>
    <defs>
        <polygon id="path-1" points="4.8859 0.572 0.7739 0.572 0.7739 4.6846 4.8859 4.6846 4.8859 0.572"></polygon>
        <polygon id="path-3" points="4.2714 0.572 0.1594 0.572 0.1594 4.6846 4.2714 4.6846 4.2714 0.572"></polygon>
    </defs>
    <g id="Page-1" stroke="none" stroke-width="1" fill="none" fill-rule="evenodd">
        <g id="einfach" transform="translate(0.000000, -1.000000)">
            <g id="Page-1" transform="translate(0.224200, 0.000000)">
                <polygon id="Fill-1" fill="#1D1C1B" points="0 21.5326 9.895 24.4276 9.895 8.5046 0 5.6086"></polygon>
                <polygon id="Fill-2" fill="#1D1C1B" points="13.4658 8.5042 13.4658 24.4282 23.3608 21.5322 23.3608 5.6092"></polygon>
                <g id="Group-9" transform="translate(6.000000, 0.427900)">
                    <g id="Group-5">
                        <mask id="mask-2" fill="white">
                            <use xlink:href="#path-1"></use>
                        </mask>
                        <g id="Clip-4"></g>
                        <path d="M2.8299,4.6846 C3.9659,4.6846 4.8859,3.7636 4.8859,2.6286 C4.8859,1.4926 3.9659,0.5716 2.8299,0.5716 C1.6939,0.5716 0.7739,1.4926 0.7739,2.6286 C0.7739,3.7636 1.6939,4.6846 2.8299,4.6846" id="Fill-3" fill="#1D1C1B" mask="url(#mask-2)"></path>
                    </g>
                    <g id="Group-8" transform="translate(6.000000, 0.000000)">
                        <mask id="mask-4" fill="white">
                            <use xlink:href="#path-3"></use>
                        </mask>
                        <g id="Clip-7"></g>
                        <path d="M2.2154,4.6846 C3.3514,4.6846 4.2714,3.7636 4.2714,2.6286 C4.2714,1.4926 3.3514,0.5716 2.2154,0.5716 C1.0794,0.5716 0.1594,1.4926 0.1594,2.6286 C0.1594,3.7636 1.0794,4.6846 2.2154,4.6846" id="Fill-6" fill="#1D1C1B" mask="url(#mask-4)"></path>
                    </g>
                </g>
            </g>
        </g>
    </g>
</svg>