<?xml version="1.0" encoding="UTF-8" standalone="no"?>
<svg width="26px" height="26px" viewBox="0 0 26 26" version="1.1" xmlns="http://www.w3.org/2000/svg" xmlns:xlink="http://www.w3.org/1999/xlink">
    <!-- Generator: Sketch 3.7.2 (28276) - http://www.bohemiancoding.com/sketch -->
    <title>facebook</title>
    <desc>Created with Sketch.</desc>
    <defs>
        <polygon id="path-1" points="0 26 25.727 26 25.727 0.418 0 0.418"></polygon>
    </defs>
    <g id="Page-1" stroke="none" stroke-width="1" fill="none" fill-rule="evenodd">
        <g id="facebook" transform="translate(0.000000, -1.000000)">
            <g id="Page-1">
                <g id="Group-3" transform="translate(0.000000, 0.581700)">
                    <mask id="mask-2" fill="white">
                        <use xlink:href="#path-1"></use>
                    </mask>
                    <g id="Clip-2"></g>
                    <path d="M12.8636,26 C19.9676,26 25.7276,20.273 25.7276,13.209 C25.7276,6.145 19.9676,0.418 12.8636,0.418 C5.7596,0.418 -0.0004,6.145 -0.0004,13.209 C-0.0004,20.273 5.7596,26 12.8636,26" id="Fill-1" fill="#1D1C1B" mask="url(#mask-2)"></path>
                </g>
                <path d="M13.9355,20.7642 L11.0545,20.7642 L11.0545,13.7902 L9.6145,13.7902 L9.6145,11.3872 L11.0545,11.3872 L11.0545,9.9442 C11.0545,7.9832 11.8675,6.8172 14.1765,6.8172 L16.0995,6.8172 L16.0995,9.2212 L14.8975,9.2212 C13.9985,9.2212 13.9395,9.5572 13.9395,10.1842 L13.9355,11.3872 L16.1125,11.3872 L15.8585,13.7902 L13.9355,13.7902 L13.9355,20.7642 Z" id="Fill-4" fill="#FEFEFE"></path>
            </g>
        </g>
    </g>
</svg>