<?xml version="1.0" encoding="UTF-8" standalone="no"?>
<svg width="25px" height="25px" viewBox="0 0 25 25" version="1.1" xmlns="http://www.w3.org/2000/svg" xmlns:xlink="http://www.w3.org/1999/xlink">
    <!-- Generator: Sketch 3.7.2 (28276) - http://www.bohemiancoding.com/sketch -->
    <title>khf</title>
    <desc>Created with Sketch.</desc>
    <defs>
        <polygon id="path-1" points="2.844 8.0299146 2.844 0.890806493 0.168270081 0.890806493 0.168270081 8.0299146 2.844 8.0299146"></polygon>
    </defs>
    <g id="Page-1" stroke="none" stroke-width="1" fill="none" fill-rule="evenodd">
        <g id="khf" transform="translate(0.000000, -1.000000)">
            <g id="Page-1">
                <g id="Group-11" transform="translate(10.000000, 0.471000)" fill="#1D1C1B">
                    <path d="M2.8183,1.9634 L3.0883,3.4944 C3.1743,3.9834 3.1373,4.3834 2.9773,4.6934 C3.2333,4.9294 3.4063,5.2954 3.4933,5.7914 L4.0333,8.8544 L3.2673,8.9894 L2.7273,5.9264 C2.6593,5.5384 2.5433,5.3034 2.3803,5.2204 L2.2073,5.1844 L2.8903,9.0554 L2.1243,9.1914 L0.9093,2.3004 L1.6753,2.1654 L2.0723,4.4184 L2.2273,4.4134 C2.3593,4.2794 2.3913,4.0174 2.3223,3.6294 L2.0523,2.0984 L2.8183,1.9634 Z" id="Fill-1"></path>
                    <path d="M6.7872,8.2575 L6.5442,8.3895 C6.5232,8.4005 6.4772,8.4215 6.4052,8.4525 C6.3322,8.4835 6.2422,8.5095 6.1342,8.5285 C6.0122,8.5495 5.8902,8.5545 5.7702,8.5425 C5.6492,8.5305 5.5282,8.4945 5.4062,8.4345 C5.0012,8.2385 4.7412,7.8175 4.6272,7.1705 L3.6992,1.9075 L3.9432,1.7765 C3.9842,1.7545 4.0462,1.7285 4.1302,1.6985 C4.2132,1.6695 4.2882,1.6485 4.3522,1.6375 C4.4672,1.6165 4.5852,1.6125 4.7062,1.6245 C4.8262,1.6365 4.9512,1.6725 5.0802,1.7315 C5.4852,1.9265 5.7462,2.3515 5.8612,3.0055 L6.7872,8.2575 Z M5.9112,7.7665 L5.0952,3.1405 C5.0272,2.7525 4.9112,2.5175 4.7482,2.4345 L4.5752,2.3985 L5.3932,7.0355 C5.4602,7.4165 5.5752,7.6485 5.7382,7.7305 L5.9112,7.7665 Z" id="Fill-3"></path>
                    <path d="M8.6418,2.5155 C8.7558,3.1625 8.6558,3.6475 8.3428,3.9695 C8.1648,4.1415 7.9758,4.2455 7.7748,4.2805 L8.4438,8.0765 L7.6778,8.2115 L6.4798,1.4175 L6.7238,1.2855 C6.7648,1.2635 6.8268,1.2385 6.9108,1.2085 C6.9938,1.1785 7.0688,1.1585 7.1328,1.1465 C7.2478,1.1265 7.3658,1.1225 7.4868,1.1345 C7.6068,1.1465 7.7318,1.1825 7.8618,1.2405 C8.2668,1.4365 8.5268,1.8615 8.6418,2.5155 M7.8768,2.6505 C7.8078,2.2625 7.6918,2.0265 7.5298,1.9445 L7.3558,1.9085 L7.6398,3.5145 L7.7898,3.4215 C7.9148,3.2885 7.9438,3.0315 7.8768,2.6505" id="Fill-5"></path>
                    <path d="M8.6418,2.5155 C8.7558,3.1625 8.6558,3.6475 8.3428,3.9695 C8.1648,4.1415 7.9758,4.2455 7.7748,4.2805 L8.4438,8.0765 L7.6778,8.2115 L6.4798,1.4175 L6.7238,1.2855 C6.7648,1.2635 6.8268,1.2385 6.9108,1.2085 C6.9938,1.1785 7.0688,1.1585 7.1328,1.1465 C7.2478,1.1265 7.3658,1.1225 7.4868,1.1345 C7.6068,1.1465 7.7318,1.1825 7.8618,1.2405 C8.2668,1.4365 8.5268,1.8615 8.6418,2.5155 M7.8768,2.6505 C7.8078,2.2625 7.6918,2.0265 7.5298,1.9445 L7.3558,1.9085 L7.6398,3.5145 L7.7898,3.4215 C7.9148,3.2885 7.9438,3.0315 7.8768,2.6505" id="Fill-7"></path>
                    <path d="M11.162,0.5921 L11.346,1.6381 L10.581,1.7731 L10.506,1.3531 L10.356,1.4461 C10.231,1.5791 10.203,1.8401 10.272,2.2281 L10.407,2.9931 L11.172,2.8581 L11.307,3.6241 L10.542,3.7591 L11.217,7.5881 L10.451,7.7231 L9.506,2.3631 C9.391,1.7091 9.49,1.2201 9.804,0.8981 C9.905,0.7991 10.01,0.7231 10.12,0.6701 C10.229,0.6181 10.345,0.5811 10.467,0.5591 C10.574,0.5401 10.652,0.5301 10.7,0.5291 C10.749,0.5281 10.811,0.5361 10.888,0.5521 L11.162,0.5921 Z" id="Fill-9"></path>
                </g>
                <polygon id="Fill-12" fill="#1D1C1B" points="14.1726 10.1152 15.3876 17.0062 14.6216 17.1412 13.9466 13.3132 13.5696 13.3792 14.2446 17.2072 13.4786 17.3422 12.2636 10.4522 13.0296 10.3172 13.4346 12.6132 13.8116 12.5472 13.4066 10.2502"></polygon>
                <g id="Group-31" transform="translate(0.000000, 2.471000)">
                    <path d="M16.9643,7.2519 L18.1623,14.0459 L17.3963,14.1809 L16.7213,10.3529 L16.3443,10.4189 L17.0193,14.2469 L16.2533,14.3819 L15.3083,9.0229 C15.1933,8.3689 15.2923,7.8799 15.6063,7.5579 C15.7073,7.4589 15.8133,7.3829 15.9223,7.3299 C16.0313,7.2779 16.1473,7.2409 16.2693,7.2189 C16.3773,7.1999 16.4553,7.1899 16.5033,7.1889 C16.5513,7.1879 16.6133,7.1959 16.6903,7.2109 L16.9643,7.2519 Z M16.3093,8.0119 L16.1593,8.1059 C16.0343,8.2389 16.0053,8.4999 16.0743,8.8879 L16.2093,9.6529 L16.5863,9.5869 L16.3093,8.0119 Z" id="Fill-13" fill="#1D1C1B"></path>
                    <path d="M20.9394,13.5561 L20.1734,13.6911 L19.2284,8.3311 C19.1604,7.9431 19.0444,7.7081 18.8824,7.6251 L18.7084,7.5891 L19.7964,13.7581 L19.0304,13.8931 L17.8324,7.0991 L18.0764,6.9671 C18.1174,6.9451 18.1794,6.9191 18.2624,6.8891 C18.3464,6.8601 18.4214,6.8391 18.4854,6.8281 C18.6004,6.8081 18.7184,6.8041 18.8394,6.8161 C18.9594,6.8281 19.0844,6.8631 19.2134,6.9221 C19.6194,7.1171 19.8794,7.5421 19.9944,8.1961 L20.9394,13.5561 Z" id="Fill-15" fill="#1D1C1B"></path>
                    <path d="M23.4442,11.5355 C23.5582,12.1825 23.4582,12.6675 23.1442,12.9895 C23.0502,13.0875 22.9472,13.1635 22.8342,13.2165 C22.7212,13.2695 22.6042,13.3075 22.4812,13.3285 C22.3742,13.3475 22.2782,13.3535 22.1952,13.3455 C22.1122,13.3385 22.0672,13.3345 22.0602,13.3365 L21.7862,13.2955 L20.6072,6.6095 L20.8512,6.4775 C20.8912,6.4555 20.9542,6.4305 21.0372,6.4005 C21.1212,6.3705 21.1952,6.3505 21.2602,6.3385 C21.3752,6.3185 21.4932,6.3145 21.6142,6.3265 C21.7342,6.3385 21.8592,6.3745 21.9882,6.4325 C22.3932,6.6285 22.6542,7.0535 22.7692,7.7075 L23.4442,11.5355 Z M21.6572,7.1365 L21.4832,7.1005 L22.4422,12.5355 L22.5922,12.4415 C22.7172,12.3085 22.7452,12.0515 22.6782,11.6705 L22.0032,7.8425 C21.9352,7.4545 21.8192,7.2185 21.6572,7.1365 L21.6572,7.1365 Z" id="Fill-17" fill="#1D1C1B"></path>
                    <path d="M15.5441,15.4221 L15.7281,16.4681 L14.9631,16.6031 L14.8891,16.1831 L14.7381,16.2761 C14.6141,16.4091 14.5851,16.6701 14.6541,17.0581 L14.7891,17.8231 L15.9681,17.6151 L16.1031,18.3811 L14.9241,18.5891 L15.5991,22.4171 L14.8331,22.5521 L13.8881,17.1931 C13.7731,16.5391 13.8721,16.0501 14.1861,15.7281 C14.2871,15.6291 14.3921,15.5531 14.5021,15.5001 C14.6111,15.4481 14.7271,15.4101 14.8491,15.3891 C14.9571,15.3701 15.0341,15.3601 15.0831,15.3591 C15.1311,15.3581 15.1931,15.3651 15.2701,15.3811 L15.5441,15.4221 Z" id="Fill-19" fill="#1D1C1B"></path>
                    <path d="M18.3023,14.8357 L19.4983,21.6187 L19.2553,21.7507 C19.2343,21.7617 19.1883,21.7827 19.1163,21.8137 C19.0433,21.8447 18.9533,21.8707 18.8453,21.8897 C18.7233,21.9107 18.6023,21.9157 18.4813,21.9037 C18.3603,21.8917 18.2393,21.8557 18.1173,21.7957 C17.7123,21.5997 17.4533,21.1787 17.3383,20.5317 L16.3933,15.1727 L17.1593,15.0377 L18.1043,20.3967 C18.1713,20.7777 18.2863,21.0097 18.4493,21.0917 L18.6223,21.1277 L17.5373,14.9707 L18.3023,14.8357 Z" id="Fill-21" fill="#1D1C1B"></path>
                    <path d="M21.095,14.4433 L21.32,15.7193 L20.555,15.8543 L20.44,15.2033 L20.289,15.2973 C20.164,15.4303 20.136,15.6913 20.205,16.0793 C20.255,16.3663 20.332,16.6313 20.434,16.8723 C20.542,17.1053 20.739,17.3823 21.025,17.7023 C21.284,17.9973 21.473,18.2503 21.592,18.4583 C21.793,18.8013 21.937,19.2173 22.023,19.7053 C22.137,20.3523 22.037,20.8373 21.723,21.1593 C21.63,21.2573 21.526,21.3333 21.413,21.3863 C21.3,21.4403 21.183,21.4773 21.06,21.4993 C20.953,21.5183 20.857,21.5233 20.775,21.5163 C20.691,21.5083 20.646,21.5053 20.639,21.5063 L20.365,21.4663 L20.032,19.5753 L20.797,19.4403 L21.02,20.7053 L21.171,20.6123 C21.296,20.4793 21.325,20.2223 21.257,19.8403 C21.193,19.4743 21.083,19.1483 20.93,18.8643 C20.832,18.6893 20.667,18.4703 20.435,18.2063 C20.176,17.9113 19.987,17.6593 19.868,17.4503 C19.667,17.1083 19.524,16.6953 19.439,16.2143 C19.324,15.5603 19.423,15.0713 19.737,14.7493 C19.838,14.6503 19.943,14.5743 20.052,14.5213 C20.162,14.4683 20.277,14.4313 20.4,14.4103 C20.508,14.3913 20.585,14.3813 20.634,14.3803 C20.681,14.3793 20.744,14.3863 20.821,14.4023 L21.095,14.4433 Z" id="Fill-23" fill="#1D1C1B"></path>
                    <g id="Group-27" transform="translate(22.000000, 13.000000)">
                        <mask id="mask-2" fill="white">
                            <use xlink:href="#path-1"></use>
                        </mask>
                        <g id="Clip-26"></g>
                        <path d="M1.8706,0.9539 L2.0956,2.2299 L1.3296,2.3649 L1.2146,1.7149 L1.0646,1.8079 C0.9396,1.9409 0.9116,2.2019 0.9806,2.5899 C1.0316,2.8769 1.1076,3.1419 1.2086,3.3829 C1.3166,3.6159 1.5136,3.8929 1.8006,4.2129 C2.0596,4.5079 2.2486,4.7609 2.3676,4.9689 C2.5686,5.3119 2.7126,5.7279 2.7986,6.2159 C2.9126,6.8639 2.8126,7.3479 2.4986,7.6699 C2.4046,7.7679 2.3016,7.8439 2.1886,7.8969 C2.0756,7.9509 1.9586,7.9879 1.8356,8.0099 C1.7276,8.0289 1.6326,8.0339 1.5496,8.0269 C1.4666,8.0189 1.4216,8.0159 1.4146,8.0169 L1.1406,7.9769 L0.8076,6.0859 L1.5736,5.9509 L1.7966,7.2159 L1.9466,7.1229 C2.0706,6.9899 2.0996,6.7329 2.0326,6.3509 C1.9676,5.9849 1.8586,5.6589 1.7056,5.3749 C1.6076,5.1999 1.4426,4.9809 1.2106,4.7169 C0.9516,4.4219 0.7626,4.1699 0.6436,3.9609 C0.4426,3.6189 0.2996,3.2069 0.2146,2.7249 C0.0996,2.0709 0.1986,1.5819 0.5126,1.2599 C0.6136,1.1609 0.7186,1.0849 0.8286,1.0319 C0.9376,0.9799 1.0536,0.9419 1.1756,0.9209 C1.2826,0.9019 1.3606,0.8919 1.4086,0.8909 C1.4576,0.8899 1.5196,0.8969 1.5966,0.9129 L1.8706,0.9539 Z" id="Fill-25" fill="#1D1C1B" mask="url(#mask-2)"></path>
                    </g>
                    <g id="Group-30" fill="#1D1C1B">
                        <path d="M0.0468,12.7156 L0.3788,14.5976 C0.6048,15.4536 0.9258,16.2636 1.3278,17.0186 L12.6198,15.0276 L11.4048,8.1366 L0.1088,10.1286 C-0.0092,10.9716 -0.0332,11.8386 0.0468,12.7156 M9.3358,0.5776 C4.6908,1.3966 1.2138,4.9456 0.2608,9.2826 L11.2648,7.3426 L10.0538,0.4756 C9.8148,0.5016 9.5748,0.5356 9.3358,0.5776 M13.2588,22.8266 C13.4988,22.7846 13.7348,22.7336 13.9678,22.6776 L13.2978,18.8756 L12.5548,19.0066 L12.7058,19.8636 L11.9398,19.9986 L11.7888,19.1416 L10.9068,19.2976 L10.7718,18.5316 L11.6538,18.3766 L11.4998,17.5076 L12.2658,17.3726 L12.4198,18.2416 L13.1628,18.1106 L12.7598,15.8226 L1.7618,17.7616 C4.1418,21.5046 8.6188,23.6446 13.2588,22.8266" id="Fill-28"></path>
                    </g>
                </g>
            </g>
        </g>
    </g>
</svg>