<?xml version="1.0" encoding="UTF-8" standalone="no"?>
<svg width="23px" height="30px" viewBox="0 0 23 30" version="1.1" xmlns="http://www.w3.org/2000/svg" xmlns:xlink="http://www.w3.org/1999/xlink">
    <!-- Generator: Sketch 3.7.2 (28276) - http://www.bohemiancoding.com/sketch -->
    <title>passwort</title>
    <desc>Created with Sketch.</desc>
    <defs></defs>
    <g id="Page-1" stroke="none" stroke-width="1" fill="none" fill-rule="evenodd">
        <g id="lock" fill="#1D1C1B">
            <path d="M21.37,12.5123951 L19.755,12.5123951 C19.548,12.5123951 19.341,12.3463951 19.341,12.0983951 L19.341,8.28839506 C19.341,3.89839506 15.945,0.170395056 11.555,0.00539505579 C6.958,-0.160604944 3.147,3.52539506 3.147,8.12239506 L3.147,12.1393951 C3.147,12.3463951 2.982,12.5533951 2.733,12.5533951 L1.118,12.5533951 C0.497,12.5533951 0,13.0503951 0,13.6723951 L0,28.3323951 C0,28.9543951 0.497,29.4513951 1.118,29.4513951 L21.329,29.4513951 C21.95,29.4513951 22.447,28.9543951 22.447,28.3323951 L22.447,13.6303951 C22.488,13.0093951 21.991,12.5123951 21.37,12.5123951 L21.37,12.5123951 Z M5.674,8.12239506 C5.674,4.93339506 8.324,2.36539506 11.555,2.53139506 C14.578,2.69739506 16.897,5.26439506 16.897,8.28839506 L16.897,12.1393951 C16.897,12.3463951 16.732,12.5533951 16.483,12.5533951 L6.046,12.5533951 C5.839,12.5533951 5.632,12.3883951 5.632,12.1393951 L5.632,8.12239506 L5.674,8.12239506 Z" id="Fill-1"></path>
        </g>
    </g>
</svg>