<?xml version="1.0" encoding="UTF-8" standalone="no"?>
<svg width="26px" height="26px" viewBox="0 0 26 26" version="1.1" xmlns="http://www.w3.org/2000/svg" xmlns:xlink="http://www.w3.org/1999/xlink">
    <!-- Generator: Sketch 3.7.2 (28276) - http://www.bohemiancoding.com/sketch -->
    <title>rss</title>
    <desc>Created with Sketch.</desc>
    <defs>
        <polygon id="path-1" points="0 26 25.727 26 25.727 0.418 0 0.418"></polygon>
    </defs>
    <g id="Page-1" stroke="none" stroke-width="1" fill="none" fill-rule="evenodd">
        <g id="rss" transform="translate(0.000000, -1.000000)">
            <g id="Page-1">
                <g id="Group-3" transform="translate(0.000000, 0.581700)">
                    <mask id="mask-2" fill="white">
                        <use xlink:href="#path-1"></use>
                    </mask>
                    <g id="Clip-2"></g>
                    <path d="M12.8636,26 C19.9676,26 25.7276,20.273 25.7276,13.209 C25.7276,6.145 19.9676,0.418 12.8636,0.418 C5.7596,0.418 -0.0004,6.145 -0.0004,13.209 C-0.0004,20.273 5.7596,26 12.8636,26" id="Fill-1" fill="#1D1C1B" mask="url(#mask-2)"></path>
                </g>
                <path d="M7.644,14.1753 C9.165,14.1753 10.594,14.7693 11.668,15.8493 C12.745,16.9303 13.337,18.3693 13.337,19.9013 L15.68,19.9013 C15.68,15.4513 12.075,11.8313 7.644,11.8313 L7.644,14.1753 Z M7.648,10.0213 C13.067,10.0213 17.476,14.4543 17.476,19.9043 L19.82,19.9043 C19.82,13.1623 14.359,7.6773 7.648,7.6773 L7.648,10.0213 Z M10.888,18.2673 C10.888,19.1633 10.161,19.8903 9.265,19.8903 C8.369,19.8903 7.642,19.1633 7.642,18.2673 C7.642,17.3703 8.369,16.6443 9.265,16.6443 C10.161,16.6443 10.888,17.3703 10.888,18.2673 L10.888,18.2673 Z" id="Fill-4" fill="#FEFEFE"></path>
            </g>
        </g>
    </g>
</svg>