<?xml version="1.0" encoding="UTF-8" standalone="no"?>
<svg width="516px" height="224px" viewBox="0 0 516 224" version="1.1" xmlns="http://www.w3.org/2000/svg" xmlns:xlink="http://www.w3.org/1999/xlink">
    <!-- Generator: Sketch 3.8.3 (29802) - http://www.bohemiancoding.com/sketch -->
    <title>start</title>
    <desc>Created with Sketch.</desc>
    <defs>
        <polygon id="path-1" points="109.215 63.4681 109.215 0.0021 0.4163 0.0021 0.4163 63.4681 109.215 63.4681"></polygon>
    </defs>
    <g id="Page-1" stroke="none" stroke-width="1" fill="none" fill-rule="evenodd">
        <g id="start">
            <g id="Page-1">
                <path d="M195.564,115.1993 C195.564,124.1283 192.298,132.2373 186.989,138.2743 C186.076,151.0153 178.546,161.7693 168.047,166.6183 L168.047,166.7373 C155.229,174.7393 147.565,188.3973 145.233,204.7803 L133.379,204.7803 L133.379,166.7723 C133.457,154.9253 136.933,147.3383 144.221,142.6573 C146.887,141.0133 149.309,139.1343 151.375,137.0503 C156.783,139.1343 161.571,143.2183 164.616,149.0273 C165.25,150.1693 166.382,150.8143 167.505,150.8143 C168.047,150.8143 168.617,150.6713 169.125,150.3483 C170.748,149.3943 171.325,147.2303 170.416,145.5143 L170.393,145.5143 C166.982,139.0113 161.795,134.2143 155.909,131.3573 C158.93,126.3783 160.607,120.4503 160.529,113.3283 C160.529,113.2933 160.573,113.2583 160.573,113.2093 C160.573,109.9933 160.129,106.8633 159.331,103.9213 C166.252,102.5053 172.348,98.7403 176.836,93.4403 C178.082,91.9773 177.99,89.7253 176.615,88.4153 C175.247,87.0943 173.181,87.2113 171.959,88.6423 C168.047,93.2033 162.772,96.3233 156.774,97.1803 C151.954,87.6063 142.989,80.8083 132.481,79.5693 C133.182,73.4953 135.735,68.0793 139.578,63.9583 C140.844,62.5763 140.844,60.3243 139.578,58.9553 C138.289,57.5613 136.156,57.5613 134.868,58.9553 C129.949,64.2323 126.658,71.2803 125.837,79.1293 C113.496,77.4623 103.987,66.2323 103.966,52.5623 C103.966,50.6193 102.465,49.0013 100.689,49.0013 C98.809,49.0013 97.344,50.6193 97.344,52.5623 C97.344,54.8713 97.555,57.0733 97.966,59.2413 C93.288,63.5793 87.468,65.7693 81.636,65.7693 C78.759,65.7693 75.871,65.2233 73.15,64.1623 C73.15,64.1623 73.105,64.1483 73.073,64.1383 C69.718,62.8403 66.641,60.7773 63.975,57.9193 C62.698,56.5373 60.588,56.5373 59.287,57.9193 C57.986,59.3013 57.986,61.5443 59.287,62.9343 C62.019,65.8543 65.097,68.1163 68.373,69.7453 C67.718,78.5933 62.918,86.2023 56.209,90.4763 C52.333,84.1653 46.501,79.1643 39.335,76.7213 C37.547,76.1283 35.692,77.1623 35.125,79.0333 C34.636,80.9023 35.526,82.8913 37.292,83.4753 C42.613,85.2823 46.89,88.7973 49.966,93.2743 C47.902,93.8703 45.78,94.1893 43.524,94.1893 L43.489,94.1893 L43.121,94.1893 C34.613,94.1893 26.793,97.8233 21.105,103.7663 C19.76,105.1353 19.728,107.3853 21.051,108.7793 C21.682,109.4963 22.55,109.8523 23.45,109.8523 C24.207,109.8523 25.038,109.5183 25.683,108.8513 C30.195,104.1343 36.347,101.2913 43.123,101.2913 L43.48,101.2913 L43.489,101.2913 L43.524,101.2913 C59.475,101.2913 72.728,88.5583 74.805,72.0563 C77.072,72.5803 79.336,72.8653 81.636,72.8653 C88.114,72.8653 94.645,70.7113 100.142,66.4473 C102.152,71.3643 105.33,75.6613 109.185,78.9963 C105.253,84.1893 102.942,90.3553 102.333,96.6673 C100.677,96.3803 98.934,96.2263 97.189,96.2263 C92.191,96.2263 87.114,97.4983 82.393,100.2043 C80.771,101.1233 80.159,103.2743 81.016,105.0143 C81.616,106.1943 82.783,106.8863 83.971,106.8863 C84.514,106.8863 85.003,106.7553 85.481,106.4563 C89.28,104.3233 93.259,103.3113 97.189,103.3113 C98.943,103.3113 100.677,103.5143 102.333,103.8933 C103.053,111.0863 105.956,118.1223 110.94,123.7193 C111.609,124.4603 112.462,124.8163 113.32,124.8163 C114.13,124.8163 114.974,124.4933 115.631,123.8403 C116.987,122.4703 117.019,120.2433 115.73,118.8243 L115.709,118.8243 C111.277,113.8013 108.933,107.4203 108.779,100.9653 C108.779,100.8693 108.8,100.7983 108.779,100.6913 L108.779,100.2963 C108.779,94.0323 110.801,87.8393 114.8,82.8633 C119.012,85.1133 123.809,86.4233 128.885,86.4233 C128.885,86.4233 128.908,86.4353 128.942,86.4353 L128.996,86.4353 C142.748,86.4823 153.88,98.3923 153.934,113.1313 C151.325,112.3943 148.636,112.0113 145.882,112.0113 C141.939,112.0113 137.939,112.7853 134.084,114.4913 C132.372,115.2403 131.563,117.2993 132.252,119.1113 C132.949,120.9183 134.851,121.8013 136.551,121.0643 C139.637,119.7433 142.784,119.1013 145.882,119.1013 C148.38,119.1013 150.859,119.5043 153.179,120.2783 C152.368,124.2553 150.779,127.4453 148.314,130.2803 C148.124,130.4583 147.945,130.6613 147.804,130.8983 C145.913,132.8863 143.648,134.7183 140.848,136.5403 C131.263,142.5423 126.662,153.4273 126.761,166.7633 L126.761,204.7723 L115.453,204.7723 L115.453,168.6313 C115.453,155.3553 107.69,142.7633 97.913,138.2863 C93.247,136.3453 88.381,133.0953 84.837,128.8433 C79.784,132.5223 73.717,134.6893 67.196,134.6893 C60.653,134.6893 54.588,132.5593 49.568,128.9043 C44.569,132.4283 38.536,134.4893 32.084,134.4893 C14.341,134.4913 0,119.0803 0,100.0893 C0,85.8923 8.009,73.7123 19.474,68.4723 C22.574,53.3213 35.091,41.9883 50.154,41.9883 C50.955,41.9883 51.688,42.0583 52.433,42.1073 C58.11,33.2123 67.651,27.3763 78.46,27.3763 C83.814,27.3763 88.836,28.8073 93.247,31.3543 C98.222,27.8063 104.176,25.7493 110.583,25.7493 C118.815,25.7493 126.313,29.1903 131.933,34.7743 C134.288,34.1663 136.721,33.8103 139.265,33.8103 C151.984,33.8103 162.981,42.0153 167.891,53.7673 C180.801,57.9603 190.198,70.7953 190.198,85.9893 C190.198,89.0373 189.819,91.9793 189.12,94.7773 C193.142,100.4483 195.564,107.5203 195.564,115.1993" id="Fill-1" fill="#1D1C1B"></path>
                <path d="M368.5235,120.6292 C386.9605,120.6292 401.8965,103.5512 401.8965,82.4882 C401.8965,61.4252 386.9605,44.3472 368.5235,44.3472 C350.0955,44.3472 335.1505,61.4252 335.1505,82.4882 C335.1505,103.5512 350.0955,120.6292 368.5235,120.6292 M368.5235,111.0942 C363.2535,111.0942 358.9885,106.8252 358.9885,101.5592 L378.0585,101.5592 C378.0585,106.8252 373.7945,111.0942 368.5235,111.0942 M346.1945,79.1552 C351.0645,82.7862 360.5155,81.4552 368.8405,75.5702 C373.0305,72.6182 376.1505,69.0232 378.0765,65.4342 C386.4765,69.1172 392.3615,77.4882 392.3615,87.2562 C392.3615,91.9772 390.9465,96.3442 388.5805,100.0462 L368.5235,92.0232 L348.4665,100.0462 C346.1005,96.3442 344.6855,91.9772 344.6855,87.2562 C344.6855,84.3972 345.2815,81.6922 346.1945,79.1552" id="Fill-3" fill="#1D1C1B"></path>
                <path d="M406.6643,130.1644 L387.5943,130.1644 L368.5233,158.7704 L349.4533,130.1644 L330.3823,130.1644 C319.8603,130.1644 311.3123,138.7034 311.3123,149.2344 L311.3123,168.3054 L311.3123,187.3754 C311.3123,192.6464 315.5873,196.9104 320.8473,196.9104 L416.1993,196.9104 C421.4703,196.9104 425.7343,192.6464 425.7343,187.3754 L425.7343,168.3054 L425.7343,149.2344 C425.7343,138.7034 417.2053,130.1644 406.6643,130.1644" id="Fill-5" fill="#1D1C1B"></path>
                <path d="M455.3348,123.8255 C442.9488,121.2885 433.6158,110.3265 433.6158,97.1795 C433.6158,87.2225 439.0268,78.6125 447.0038,73.8705 C449.5448,79.3465 454.7328,84.9425 461.8778,89.0725 C471.2448,94.4785 481.1798,95.8105 487.6258,93.2305 C487.8198,94.5315 488.0158,95.8245 488.0158,97.1795 C488.0158,110.3265 478.7008,121.2885 466.3048,123.8255 C483.7118,121.1645 497.0818,106.2635 497.0818,88.1125 C497.0818,68.0845 480.8438,51.8465 460.8158,51.8465 C440.7968,51.8465 424.5498,68.0845 424.5498,88.1125 C424.5498,106.2635 437.9368,121.1645 455.3348,123.8255" id="Fill-7" fill="#1D1C1B"></path>
                <g id="Group-11" transform="translate(406.000000, 133.443000)">
                    <mask id="mask-2" fill="white">
                        <use xlink:href="#path-1"></use>
                    </mask>
                    <g id="Clip-10"></g>
                    <path d="M82.0153,0.0021 L77.4823,0.0021 C77.4823,12.5221 67.3363,22.6681 54.8153,22.6681 C42.2963,22.6681 32.1493,12.5221 32.1493,0.0021 L27.6163,0.0021 C12.5993,0.0021 0.4163,12.1771 0.4163,27.2021 L0.4163,54.4011 C0.4163,59.4131 4.4713,63.4681 9.4833,63.4681 L100.1483,63.4681 C105.1603,63.4681 109.2153,59.4131 109.2153,54.4011 L109.2153,27.2021 C109.2153,12.1771 97.0483,0.0021 82.0153,0.0021" id="Fill-9" fill="#1D1C1B" mask="url(#mask-2)"></path>
                </g>
                <path d="M328.4926,0.063 L197.2886,223.38" id="Stroke-12" stroke="#1D1C1B" stroke-width="0.25"></path>
            </g>
        </g>
    </g>
</svg>