<?xml version="1.0" encoding="UTF-8" standalone="no"?>
<svg width="24px" height="24px" viewBox="0 0 24 24" version="1.1" xmlns="http://www.w3.org/2000/svg" xmlns:xlink="http://www.w3.org/1999/xlink">
    <!-- Generator: Sketch 3.7.2 (28276) - http://www.bohemiancoding.com/sketch -->
    <title>suche</title>
    <desc>Created with Sketch.</desc>
    <defs>
        <polygon id="path-1" points="23.799 0.0027 23.799 23.8561 0 23.8561 0 0.0027 23.799 0.0027"></polygon>
    </defs>
    <g id="Page-1" stroke="none" stroke-width="1" fill="none" fill-rule="evenodd">
        <g id="suche" transform="translate(-1.000000, 0.000000)">
            <g id="Page-1" transform="translate(0.937400, 0.000000)">
                <mask id="mask-2" fill="white">
                    <use xlink:href="#path-1"></use>
                </mask>
                <g id="Clip-2"></g>
                <path d="M17.9868,14.5187 C18.8438,13.0837 19.3448,11.4147 19.3448,9.6287 C19.3448,4.3207 15.0058,0.0027 9.6728,0.0027 C4.3388,0.0027 -0.0002,4.3207 -0.0002,9.6287 C-0.0002,14.9327 4.3388,19.2477 9.6728,19.2477 C11.4608,19.2477 13.1298,18.7537 14.5688,17.9097 L21.1008,24.3647 L24.4858,20.9397 L17.9868,14.5187 Z M14.5308,9.6287 C14.5308,12.2767 12.3518,14.4317 9.6728,14.4317 C6.9948,14.4317 4.8148,12.2767 4.8148,9.6287 C4.8148,6.9757 6.9948,4.8177 9.6728,4.8177 C12.3518,4.8177 14.5308,6.9757 14.5308,9.6287 L14.5308,9.6287 Z" id="Fill-1" fill="#1C1C1C" mask="url(#mask-2)"></path>
            </g>
        </g>
    </g>
</svg>