<?xml version="1.0" encoding="UTF-8" standalone="no"?>
<svg width="26px" height="26px" viewBox="0 0 26 26" version="1.1" xmlns="http://www.w3.org/2000/svg" xmlns:xlink="http://www.w3.org/1999/xlink">
    <!-- Generator: Sketch 3.7.2 (28276) - http://www.bohemiancoding.com/sketch -->
    <title>twitter</title>
    <desc>Created with Sketch.</desc>
    <defs>
        <polygon id="path-1" points="0 26 25.727 26 25.727 0.418 0 0.418"></polygon>
    </defs>
    <g id="Page-1" stroke="none" stroke-width="1" fill="none" fill-rule="evenodd">
        <g id="twitter" transform="translate(0.000000, -1.000000)">
            <g id="Page-1">
                <g id="Group-3" transform="translate(0.000000, 0.581700)">
                    <mask id="mask-2" fill="white">
                        <use xlink:href="#path-1"></use>
                    </mask>
                    <g id="Clip-2"></g>
                    <path d="M12.8636,26 C19.9676,26 25.7276,20.273 25.7276,13.209 C25.7276,6.145 19.9676,0.418 12.8636,0.418 C5.7596,0.418 -0.0004,6.145 -0.0004,13.209 C-0.0004,20.273 5.7596,26 12.8636,26" id="Fill-1" fill="#1D1C1B" mask="url(#mask-2)"></path>
                </g>
                <path d="M20.4885,9.1438 C19.9855,9.3658 19.4455,9.5168 18.8785,9.5838 C19.4575,9.2378 19.9015,8.6878 20.1095,8.0328 C19.5675,8.3548 18.9685,8.5878 18.3305,8.7138 C17.8195,8.1698 17.0915,7.8298 16.2845,7.8298 C14.7375,7.8298 13.4825,9.0848 13.4825,10.6318 C13.4825,10.8518 13.5075,11.0658 13.5565,11.2688 C11.2265,11.1528 9.1625,10.0368 7.7815,8.3408 C7.5405,8.7548 7.4025,9.2358 7.4025,9.7488 C7.4025,10.7208 7.8975,11.5788 8.6495,12.0798 C8.1905,12.0658 7.7585,11.9398 7.3795,11.7298 L7.3795,11.7648 C7.3795,13.1218 8.3455,14.2548 9.6275,14.5108 C9.3925,14.5748 9.1445,14.6088 8.8895,14.6088 C8.7085,14.6088 8.5335,14.5908 8.3615,14.5578 C8.7185,15.6708 9.7535,16.4818 10.9785,16.5038 C10.0185,17.2558 8.8125,17.7048 7.4975,17.7048 C7.2715,17.7048 7.0495,17.6898 6.8295,17.6658 C8.0685,18.4608 9.5415,18.9248 11.1255,18.9248 C16.2785,18.9248 19.0965,14.6558 19.0965,10.9538 C19.0965,10.8308 19.0945,10.7108 19.0885,10.5908 C19.6365,10.1948 20.1115,9.7018 20.4865,9.1398 L20.4885,9.1438 Z" id="Fill-4" fill="#FEFEFE"></path>
            </g>
        </g>
    </g>
</svg>