<?xml version="1.0" encoding="UTF-8" standalone="no"?>
<svg width="25px" height="25px" viewBox="0 0 25 25" version="1.1" xmlns="http://www.w3.org/2000/svg" xmlns:xlink="http://www.w3.org/1999/xlink">
    <!-- Generator: Sketch 3.7.2 (28276) - http://www.bohemiancoding.com/sketch -->
    <title>übung</title>
    <desc>Created with Sketch.</desc>
    <defs>
        <polygon id="path-1" points="0.000157068138 24.2964 24.296 24.2964 24.296 0.0004 0.000157068138 0.0004"></polygon>
    </defs>
    <g id="Page-1" stroke="none" stroke-width="1" fill="none" fill-rule="evenodd">
        <g id="übung">
            <g id="Page-1">
                <mask id="mask-2" fill="white">
                    <use xlink:href="#path-1"></use>
                </mask>
                <g id="Clip-2"></g>
                <path d="M0.6633,24.2797 C1.3603,24.1007 7.4153,22.5007 9.1033,22.1157 C9.4163,22.0447 9.6663,21.9067 9.8933,21.6797 L13.5623,18.0107 L23.4563,8.1167 L23.5053,8.0677 L23.5053,8.0667 C24.5763,6.9427 24.5603,5.1457 23.4563,4.0417 L20.2543,0.8407 C19.1503,-0.2633 17.3543,-0.2803 16.2293,0.7917 L16.2293,0.7907 L16.1803,0.8407 L6.2863,10.7337 L2.6173,14.4027 C2.3903,14.6297 2.2523,14.8807 2.1803,15.1927 C1.7963,16.8797 0.1983,22.9277 0.0183,23.6277 C-0.0047,23.7127 -0.0067,23.8057 0.0173,23.8977 C0.0903,24.1817 0.3793,24.3527 0.6633,24.2797 L0.6633,24.2797 Z M20.6653,6.9617 C20.8583,6.7687 21.1743,6.7687 21.3663,6.9617 L21.4613,7.0557 C21.6533,7.2487 21.6533,7.5647 21.4613,7.7567 L9.7863,19.4317 C9.5933,19.6247 9.2773,19.6247 9.0843,19.4317 L8.9903,19.3377 C8.7973,19.1447 8.7973,18.8297 8.9903,18.6367 L20.6653,6.9617 Z M18.5883,4.8837 C18.7813,4.6907 19.0963,4.6907 19.2893,4.8837 L19.3843,4.9777 C19.5763,5.1707 19.5763,5.4867 19.3843,5.6797 L7.7083,17.3547 C7.5163,17.5477 7.2003,17.5477 7.0073,17.3547 L6.9133,17.2607 C6.7203,17.0677 6.7203,16.7517 6.9133,16.5587 L18.5883,4.8837 Z M4.8353,14.4817 L16.5103,2.8067 C16.7033,2.6137 17.0183,2.6137 17.2113,2.8067 L17.3063,2.9007 C17.4993,3.0937 17.4993,3.4087 17.3063,3.6027 L5.6313,15.2767 C5.4383,15.4697 5.1223,15.4697 4.9293,15.2767 L4.8353,15.1827 C4.6423,14.9897 4.6423,14.6747 4.8353,14.4817 L4.8353,14.4817 Z M3.0413,16.1137 L8.1823,21.2547 L4.2983,22.2507 L2.0453,19.9977 L3.0413,16.1137 Z" id="Fill-1" fill="#1D1C1B" mask="url(#mask-2)"></path>
            </g>
        </g>
    </g>
</svg>