<?xml version="1.0" encoding="UTF-8" standalone="no"?>
<!-- Created with Inkscape (http://www.inkscape.org/) -->

<svg
   xmlns:dc="http://purl.org/dc/elements/1.1/"
   xmlns:cc="http://creativecommons.org/ns#"
   xmlns:rdf="http://www.w3.org/1999/02/22-rdf-syntax-ns#"
   xmlns:svg="http://www.w3.org/2000/svg"
   xmlns="http://www.w3.org/2000/svg"
   xmlns:sodipodi="http://sodipodi.sourceforge.net/DTD/sodipodi-0.dtd"
   xmlns:inkscape="http://www.inkscape.org/namespaces/inkscape"
   width="122.16317mm"
   height="114.75416mm"
   viewBox="0 0 122.16317 114.75416"
   version="1.1"
   id="svg8"
   sodipodi:docname="wayin-logo.svg"
   style="enable-background:new"
   inkscape:version="0.92.2 2405546, 2018-03-11">
  <defs
     id="defs2">
    <filter
       inkscape:collect="always"
       style="color-interpolation-filters:sRGB"
       id="filter1013">
      <feBlend
         inkscape:collect="always"
         mode="multiply"
         in2="BackgroundImage"
         id="feBlend1015" />
    </filter>
    <filter
       inkscape:collect="always"
       style="color-interpolation-filters:sRGB"
       id="filter1027">
      <feBlend
         inkscape:collect="always"
         mode="multiply"
         in2="BackgroundImage"
         id="feBlend1029" />
    </filter>
    <filter
       inkscape:collect="always"
       style="color-interpolation-filters:sRGB"
       id="filter1031">
      <feBlend
         inkscape:collect="always"
         mode="multiply"
         in2="BackgroundImage"
         id="feBlend1033" />
    </filter>
  </defs>
  <sodipodi:namedview
     id="base"
     pagecolor="#ffffff"
     bordercolor="#666666"
     borderopacity="1.0"
     inkscape:pageopacity="0.0"
     inkscape:pageshadow="2"
     inkscape:zoom="0.98994949"
     inkscape:cx="331.34418"
     inkscape:cy="231.96999"
     inkscape:document-units="mm"
     inkscape:current-layer="layer1"
     showgrid="false"
     showguides="true"
     inkscape:guide-bbox="true"
     inkscape:window-width="1920"
     inkscape:window-height="1054"
     inkscape:window-x="1920"
     inkscape:window-y="0"
     inkscape:window-maximized="0"
     fit-margin-top="0"
     fit-margin-left="0"
     fit-margin-right="0"
     fit-margin-bottom="0">
    <sodipodi:guide
       position="42.042361,0.10487544"
       orientation="0,1"
       id="guide912"
       inkscape:locked="false" />
    <sodipodi:guide
       position="28.678884,28.569087"
       orientation="1,0"
       id="guide914"
       inkscape:locked="false" />
    <sodipodi:guide
       position="56.942636,45.807978"
       orientation="0,1"
       id="guide1035"
       inkscape:locked="false" />
  </sodipodi:namedview>
  <metadata
     id="metadata5">
    <rdf:RDF>
      <cc:Work
         rdf:about="">
        <dc:format>image/svg+xml</dc:format>
        <dc:type
           rdf:resource="http://purl.org/dc/dcmitype/StillImage" />
        <dc:title></dc:title>
      </cc:Work>
    </rdf:RDF>
  </metadata>
  <g
     inkscape:label="Layer 1"
     inkscape:groupmode="layer"
     id="layer1"
     style="filter:url(#filter1027)"
     transform="translate(-42.949352,-29.071644)">
    <path
       transform="matrix(0.26458333,0,0,0.26610328,103.63565,85.093898)"
       d="M 172.28516,0.91015625 A 1.5277931,1.5277931 0 0 0 170.98047,1.6425781 L 135.7832,59.441406 a 1.5277931,1.5277931 0 0 0 -0.22265,0.794922 v 18.894531 a 1.5277931,1.5277931 0 0 0 1.52734,1.527344 h 13.70899 a 1.5277931,1.5277931 0 0 0 1.26562,-0.671875 l 14.25,-21.064453 V 163.04492 L 96.148438,49.429688 a 1.5277931,1.5277931 0 0 0 -1.298829,-0.72461 H 56.6875 a 1.5277931,1.5277931 0 0 0 -1.527344,1.527344 V 218.8125 a 1.5277931,1.5277931 0 0 0 1.527344,1.52734 h 33.716797 a 1.5277931,1.5277931 0 0 0 1.527344,-1.52734 V 105.73047 l 69.044919,114.24414 a 1.5277931,1.5277931 0 0 0 1.30664,0.73633 h 37.41992 a 1.5277931,1.5277931 0 0 0 1.52735,-1.52735 V 59.142578 l 14.63672,20.865234 a 1.5277931,1.5277931 0 0 0 1.25,0.650391 h 13.70898 a 1.5277931,1.5277931 0 0 0 1.52735,-1.527344 V 59.865234 a 1.5277931,1.5277931 0 0 0 -0.21094,-0.773437 L 198.42578,1.6640625 a 1.5277931,1.5277931 0 0 0 -1.3164,-0.75390625 z"
       id="path1157"
       style="fill:#263681;fill-opacity:1;stroke:none;stroke-width:1px;stroke-linecap:butt;stroke-linejoin:miter;stroke-opacity:1"
       inkscape:original="M 172.28516 2.4375 L 137.08789 60.236328 L 137.08789 79.130859 L 150.79688 79.130859 L 167.83984 53.9375 L 167.83984 168.42383 L 94.849609 50.232422 L 56.6875 50.232422 L 56.6875 218.8125 L 90.404297 218.8125 L 90.404297 100.25 L 162.2832 219.18359 L 199.70312 219.18359 L 199.70312 54.306641 L 217.11719 79.130859 L 230.82617 79.130859 L 230.82617 59.865234 L 197.10938 2.4375 L 172.28516 2.4375 z "
       inkscape:radius="1.5276403"
       sodipodi:type="inkscape:offset" />
    <path
       transform="matrix(0.26458333,0,0,0.26145976,72.099434,90.59942)"
       d="m 118.5625,28.373047 a 1.8527226,1.8527226 0 0 0 -1.85156,1.859375 l 0.74023,171.173828 a 1.8527226,1.8527226 0 0 0 1.85156,1.8457 h 31.49415 a 1.8527226,1.8527226 0 0 0 1.85351,-1.85351 V 30.224609 a 1.8527226,1.8527226 0 0 0 -1.85351,-1.851562 z"
       id="path1060"
       style="fill:#acb2da;fill-opacity:1;stroke:none;stroke-width:1px;stroke-linecap:butt;stroke-linejoin:miter;stroke-opacity:1"
       inkscape:original="M 118.5625 30.224609 L 119.30273 201.39844 L 150.79688 201.39844 L 150.79688 30.224609 L 118.5625 30.224609 z "
       inkscape:radius="1.8525374"
       sodipodi:type="inkscape:offset" />
    <path
       transform="matrix(0.26458333,0,0,0.26458333,34.884741,23.640968)"
       d="m 121.30078,20.525391 a 1.4821784,1.4821784 0 0 0 -1.41992,1.060547 L 86.648438,133.52539 61.441406,22.464844 a 1.4821784,1.4821784 0 0 0 -1.445312,-1.154297 h -20.958985 -6.8125 a 1.4821784,1.4821784 0 0 0 -1.482421,1.470703 l -0.261719,30.914062 a 1.4821784,1.4821784 0 0 0 0.05273,0.404297 L 69.306641,195.3125 a 1.4821784,1.4821784 0 0 0 1.429687,1.08984 h 33.535152 a 1.4821784,1.4821784 0 0 0 1.42579,-1.08007 L 138.87305,77.699219 172.79883,194.80664 a 1.4821784,1.4821784 0 0 0 1.42383,1.07031 h 32.48632 a 1.4821784,1.4821784 0 0 0 1.42774,-1.08593 L 247.17188,54.365234 a 1.4821784,1.4821784 0 0 0 0.0547,-0.396484 V 22.269531 a 1.4821784,1.4821784 0 0 0 -1.48242,-1.482422 h -27.76953 a 1.4821784,1.4821784 0 0 0 -1.44336,1.146485 L 190.54688,133.60742 157.04102,21.583984 a 1.4821784,1.4821784 0 0 0 -1.41993,-1.058593 z"
       id="path72828"
       style="fill:#f29599;fill-opacity:1;stroke:none;stroke-width:1.00157475;stroke-linecap:butt;stroke-linejoin:miter;stroke-miterlimit:4;stroke-dasharray:none;stroke-opacity:0.03599997"
       inkscape:original="M 121.30078 22.007812 L 86.457031 139.37695 L 59.996094 22.792969 L 39.037109 22.792969 L 32.224609 22.792969 L 31.962891 53.707031 L 70.736328 194.91992 L 104.27148 194.91992 L 138.85352 72.308594 L 174.22266 194.39453 L 206.70898 194.39453 L 245.74414 53.96875 L 245.74414 22.269531 L 217.97461 22.269531 L 190.72656 139.37695 L 155.62109 22.007812 L 121.30078 22.007812 z "
       inkscape:radius="1.4820302"
       sodipodi:type="inkscape:offset" />
  </g>
  <g
     inkscape:groupmode="layer"
     id="layer2"
     inkscape:label="Layer 2"
     style="filter:url(#filter1031)"
     transform="translate(-42.949352,-29.071644)">
    <path
       inkscape:connector-curvature="0"
       style="opacity:1;fill:#eee555;fill-opacity:1;fill-rule:nonzero;stroke:none;stroke-width:0.26458332px;stroke-linecap:butt;stroke-linejoin:miter;stroke-opacity:1"
       d="m 66.984074,58.097001 -14.90349,38.124803 v 6.446636 h 6.6549 l 4.22816,-9.427336 h 17.25993 l 4.57492,9.496576 h 6.65489 V 96.014064 L 76.688394,58.097001 Z m 4.64416,10.53631 7.00112,16.982944 -13.517,-0.1385 z"
       id="path890" />
  </g>
  <g
     inkscape:groupmode="layer"
     id="layer3"
     inkscape:label="Layer 3"
     style="filter:url(#filter1013)"
     transform="translate(-42.949352,-29.071644)">
    <path
       style="fill:#59b45d;fill-opacity:1;stroke:none;stroke-width:0.26473424px;stroke-linecap:butt;stroke-linejoin:miter;stroke-opacity:1"
       id="path945"
       d="m 83.785114,98.017831 a 0.39215957,0.39260711 0 0 0 -0.33125,0.182628 L 71.628234,116.91316 60.000004,98.592095 a 0.39215957,0.39260711 0 0 0 -0.33073,-0.182107 h -5.68544 a 0.39215957,0.39260711 0 0 0 -0.39223,0.392667 v 6.772165 a 0.39215957,0.39260711 0 0 0 0.0589,0.20643 l 12.98061,21.00767 0.1943,16.575 a 0.39215957,0.39260711 0 0 0 0.39223,0.38801 h 8.62686 a 0.39215957,0.39260711 0 0 0 0.39222,-0.39267 V 126.9819 l 12.88191,-21.00561 a 0.39215957,0.39260711 0 0 0 0.0579,-0.20539 v -7.360402 a 0.39215957,0.39260711 0 0 0 -0.39223,-0.392667 z"
       inkscape:connector-curvature="0" />
  </g>
</svg>
