<?xml version="1.0" encoding="UTF-8" standalone="no"?>
<svg width="28px" height="32px" viewBox="0 0 28 32" version="1.1" xmlns="http://www.w3.org/2000/svg" xmlns:xlink="http://www.w3.org/1999/xlink">
    <!-- Generator: Sketch 3.7.2 (28276) - http://www.bohemiancoding.com/sketch -->
    <title>zeit</title>
    <desc>Created with Sketch.</desc>
    <defs>
        <polygon id="path-1" points="27.7316 0.719 0 0.719 0 31.9998 27.7316 31.9998 27.7316 0.719"></polygon>
    </defs>
    <g id="Page-1" stroke="none" stroke-width="1" fill="none" fill-rule="evenodd">
        <g id="zeit" transform="translate(0.000000, -1.000000)">
            <g id="Page-1">
                <g id="Group-3" transform="translate(0.000000, 0.281100)">
                    <mask id="mask-2" fill="white">
                        <use xlink:href="#path-1"></use>
                    </mask>
                    <g id="Clip-2"></g>
                    <path d="M14.9756,4.3168 L14.9756,2.9368 L15.9616,2.9368 C16.5746,2.9368 17.0706,2.4398 17.0706,1.8278 C17.0706,1.2148 16.5736,0.7188 15.9616,0.7188 L11.7706,0.7188 C11.1576,0.7188 10.6616,1.2158 10.6616,1.8278 C10.6616,2.4408 11.1576,2.9368 11.7706,2.9368 L12.7566,2.9368 L12.7566,4.3168 C5.6286,4.8838 -0.0004,10.8628 -0.0004,18.1338 C-0.0004,25.7798 6.2206,31.9998 13.8656,31.9998 C21.5116,31.9998 27.7316,25.7798 27.7316,18.1338 C27.7326,10.8628 22.1046,4.8848 14.9756,4.3168 L14.9756,4.3168 Z M17.3276,11.1288 C17.6736,10.6228 18.3636,10.4948 18.8696,10.8408 C19.3746,11.1878 19.5036,11.8788 19.1576,12.3838 L14.7806,18.7618 C14.5656,19.0758 14.2186,19.2438 13.8646,19.2438 C13.6486,19.2438 13.4306,19.1808 13.2386,19.0488 C12.7326,18.7028 12.6046,18.0118 12.9506,17.5068 L17.3276,11.1288 Z" id="Fill-1" fill="#1D1C1B" mask="url(#mask-2)"></path>
                </g>
                <path d="M21.5594,5.7814 C22.1854,6.1634 22.7894,6.5974 23.3544,7.0694 C23.5624,7.2434 23.8144,7.3284 24.0664,7.3284 C24.3834,7.3284 24.6984,7.1934 24.9174,6.9304 C25.3104,6.4614 25.2484,5.7614 24.7784,5.3684 C24.1294,4.8244 23.4344,4.3264 22.7144,3.8874 C22.1924,3.5684 21.5094,3.7334 21.1894,4.2564 C20.8714,4.7794 21.0364,5.4614 21.5594,5.7814" id="Fill-4" fill="#1D1C1B"></path>
            </g>
        </g>
    </g>
</svg>